<svg width="19.058594" height="18.000000" viewBox="0 0 19.0586 18" fill="none"
	xmlns="http://www.w3.org/2000/svg"
	xmlns:xlink="http://www.w3.org/1999/xlink">
	<defs/>
	<path id="Vector" d="M9.5293 0C4.26709 0 0 4.13135 0 9.22791C0 13.3049 2.73047 16.7639 6.51709 17.9841C6.99316 18.0696 7.16797 17.7839 7.16797 17.5403C7.16797 17.3202 7.15918 16.5933 7.15479 15.8221C4.50391 16.3804 3.94434 14.7334 3.94434 14.7334C3.51123 13.6669 2.88623 13.3832 2.88623 13.3832C2.02197 12.8104 2.95166 12.8223 2.95166 12.8223C3.90869 12.8873 4.4126 13.7732 4.4126 13.7732C5.26221 15.184 6.6416 14.776 7.18555 14.5403C7.271 13.9438 7.51807 13.5367 7.79053 13.3064C5.67383 13.073 3.44873 12.2817 3.44873 8.74585C3.44873 7.7384 3.82129 6.91528 4.43066 6.26904C4.33154 6.03662 4.00537 5.09802 4.52295 3.8269C4.52295 3.8269 5.32324 3.57898 7.14404 4.77283C7.9043 4.56836 8.71973 4.46582 9.5293 4.46228C10.3394 4.46582 11.1553 4.56836 11.917 4.77283C13.7358 3.57898 14.5347 3.8269 14.5347 3.8269C15.0532 5.09802 14.7271 6.03662 14.6279 6.26904C15.2393 6.91528 15.6089 7.7384 15.6089 8.74585C15.6089 12.2902 13.3794 13.0706 11.2578 13.299C11.5996 13.5853 11.9038 14.147 11.9038 15.0078C11.9038 16.2426 11.8931 17.2363 11.8931 17.5403C11.8931 17.7858 12.0645 18.0735 12.5474 17.9829C16.332 16.7614 19.0586 13.3036 19.0586 9.22791C19.0586 4.13135 14.7925 0 9.5293 0ZM3.56934 13.1453C3.54834 13.1912 3.47363 13.2048 3.40576 13.1733C3.33643 13.1433 3.29785 13.0808 3.32031 13.0348C3.34082 12.9875 3.41553 12.9745 3.48438 13.0061C3.55371 13.0361 3.59326 13.0992 3.56934 13.1453ZM4.03809 13.5503C3.99219 13.5911 3.90332 13.5721 3.84326 13.5077C3.78076 13.4434 3.76904 13.3573 3.81543 13.3159C3.8623 13.275 3.94824 13.2942 4.01074 13.3585C4.07324 13.4236 4.08545 13.509 4.03809 13.5503ZM4.35938 14.0685C4.30127 14.1078 4.20557 14.0709 4.14648 13.9889C4.08838 13.9069 4.08838 13.8085 4.14795 13.769C4.20703 13.7296 4.30127 13.765 4.36084 13.8464C4.41895 13.9299 4.41895 14.0283 4.35938 14.0685ZM4.90332 14.6687C4.85107 14.7244 4.73975 14.7095 4.6582 14.6333C4.5752 14.559 4.55176 14.4534 4.604 14.3976C4.65723 14.3417 4.76904 14.3574 4.85107 14.4329C4.93359 14.5071 4.95898 14.6135 4.90332 14.6687ZM5.60596 14.8712C5.58301 14.9435 5.47607 14.9764 5.36816 14.9457C5.26025 14.9141 5.18994 14.8293 5.21143 14.7563C5.23389 14.6836 5.34131 14.6494 5.4502 14.6823C5.55811 14.7137 5.62842 14.7977 5.60596 14.8712ZM6.40625 14.9572C6.40869 15.0333 6.31738 15.0964 6.2041 15.0978C6.08984 15.1002 5.99805 15.0387 5.99658 14.9637C5.99658 14.8868 6.08594 14.8243 6.2002 14.8225C6.31348 14.8204 6.40625 14.8816 6.40625 14.9572ZM7.19189 14.928C7.20557 15.0023 7.12695 15.0785 7.01416 15.0989C6.90381 15.1184 6.80127 15.0726 6.78711 14.9989C6.77344 14.9229 6.85352 14.8466 6.96387 14.8269C7.07666 14.8079 7.17773 14.8525 7.19189 14.928Z" fill="#161614" fill-opacity="1.000000" fill-rule="nonzero"/>
</svg>
