<svg width="18.000000" height="18.000000" viewBox="0 0 18 18" fill="none"
	xmlns="http://www.w3.org/2000/svg"
	xmlns:xlink="http://www.w3.org/1999/xlink">
	<defs/>
	<path id="Vector" d="M18 9.20459C18 8.56641 17.9414 7.95276 17.833 7.36365L9.18359 7.36365L9.18359 10.845L14.126 10.845C13.9131 11.97 13.2661 12.9232 12.2935 13.5614L12.2935 15.8196L15.2617 15.8196C16.998 14.2527 18 11.9454 18 9.20459Z" fill="#4285F4" fill-opacity="1.000000" fill-rule="nonzero"/>
	<path id="Vector" d="M9.18359 18C11.6631 18 13.7422 17.1941 15.2617 15.8196L12.2935 13.5614C11.4712 14.1013 10.4194 14.4204 9.18359 14.4204C6.7915 14.4204 4.76709 12.8373 4.04492 10.71L0.977051 10.71L0.977051 13.0419C2.48779 15.9832 5.59375 18 9.18359 18Z" fill="#34A853" fill-opacity="1.000000" fill-rule="nonzero"/>
	<path id="Vector" d="M4.04492 10.71C3.86133 10.17 3.75684 9.59314 3.75684 9C3.75684 8.40686 3.86133 7.82996 4.04492 7.29004L4.04492 4.95813L0.977051 4.95813C0.333984 6.21228 -0.000488281 7.59656 0 9C0 10.4523 0.35498 11.8268 0.977051 13.0419L4.04492 10.71Z" fill="#FBBC05" fill-opacity="1.000000" fill-rule="nonzero"/>
	<path id="Vector" d="M9.18359 3.57959C10.5322 3.57959 11.7427 4.03369 12.6943 4.92542L15.3286 2.34412C13.7378 0.891846 11.6592 0 9.18359 0C5.59375 0 2.48779 2.01685 0.977051 4.95813L4.04492 7.29004C4.76709 5.16272 6.7915 3.57959 9.18359 3.57959Z" fill="#EA4335" fill-opacity="1.000000" fill-rule="nonzero"/>
</svg>
