<svg width="178.087402" height="32.000000" viewBox="0 0 178.087 32" fill="none" xmlns="http://www.w3.org/2000/svg" xmlns:xlink="http://www.w3.org/1999/xlink">
	<desc>
			Created with Pixso.
	</desc>
	<defs/>
	<path id="Vector" d="M146.883 29.6812C146.264 30.4541 144.019 32 140.689 32C134.107 32 129.461 27.0531 129.461 20.0193C129.461 12.9082 133.643 8.0387 140.302 8.0387C143.786 8.0387 145.954 9.81641 146.419 10.3575L146.419 0L153.698 0L153.698 31.459L146.883 31.459L146.883 29.6812ZM0 16.0773C0 7.26575 6.34961 0.309204 16.0288 0.309204C25.7075 0.309204 32.0571 7.26575 32.0571 16.0773C32.0571 19.2463 31.2056 22.1836 29.8115 24.5797L32.522 26.8986L28.1079 32L25.1655 29.3719C22.688 30.9178 19.5903 31.8455 16.106 31.8455C6.34961 31.9227 0 25.0435 0 16.0773ZM7.74316 16.0773C7.74316 21.1787 11.1504 24.9662 15.9512 24.9662C17.1128 24.9662 18.2739 24.7343 19.2031 24.3478L16.6479 22.1063L20.9844 17.0822L23.6172 19.401C23.9268 18.3961 24.1592 17.314 24.1592 16.1545C24.1592 11.1304 20.8296 7.34302 15.9512 7.34302C11.0728 7.34302 7.74316 11.0531 7.74316 16.0773ZM41.9673 21.9517C42.1221 23.9613 44.1353 25.7391 46.7681 25.7391C49.478 25.7391 51.104 23.9613 51.5688 23.2657L56.3696 26.9758C55.75 28.2898 52.5752 32 46.6133 32C39.1021 32 34.4561 26.8213 34.4561 20.0966C34.4561 13.3719 39.0244 8.0387 45.6841 8.0387C52.9624 8.0387 56.9116 12.6763 56.9116 20.483L56.9116 20.4833C56.9116 20.9469 56.9116 21.4106 56.834 21.9517L41.9673 21.9517ZM98.645 24.0387L100.581 29.9904C99.0322 31.0725 96.709 32 93.8442 32C86.5654 32 81.4551 27.0531 81.4551 20.0193C81.4551 12.9855 86.7979 8.0387 93.8442 8.0387C96.7866 8.0387 99.0322 8.96619 100.658 10.1256L98.7222 16.2319C97.4834 15.1498 95.8574 14.5314 94.1538 14.5314C90.7466 14.5314 88.811 16.9275 88.811 19.942C88.811 23.2657 91.0566 25.5846 94.4634 25.5846C96.0122 25.6619 97.6382 24.8889 98.645 24.0387ZM163.143 21.9517C163.298 23.9613 165.311 25.7391 167.944 25.7391C170.654 25.7391 172.28 23.9613 172.745 23.2657L177.545 26.9758C176.926 28.2898 173.751 32 167.789 32C160.278 32 155.632 26.8213 155.632 20.0966C155.632 13.3719 160.2 8.0387 166.86 8.0387C174.138 8.0387 178.087 12.6763 178.087 20.483C178.087 20.9469 178.087 21.4106 178.01 21.9517L163.143 21.9517ZM114.982 8.0387C122.339 8.0387 127.527 13.0627 127.527 20.0193C127.527 26.8986 122.184 32 114.982 32C107.704 32 102.593 26.9758 102.593 20.0967C102.593 20.0469 102.593 19.9971 102.593 19.9475C102.593 13.0673 107.91 8.0387 114.982 8.0387ZM72.3193 18.3961C72.3193 16.2319 71.0806 15.1498 69.2993 15.1498C67.2861 15.1498 66.1245 16.6184 66.1245 18.3961L66.1245 32L58.8462 32L58.8462 9.19812L65.9697 9.19812L65.9697 11.5168C66.8213 10.2029 68.835 8.57971 71.6997 8.57971C78.8237 8.57971 79.5205 14.686 79.5205 19.3237L79.5205 32L72.2417 32L72.2417 18.3961L72.3193 18.3961ZM42.1992 17.3914L49.6328 17.3914C49.5557 15.5363 48.1616 13.9904 45.916 13.9904C43.5156 13.9904 42.3545 15.7681 42.1992 17.3914ZM163.375 17.3914L170.809 17.3914C170.731 15.5363 169.337 13.9904 167.092 13.9904C164.691 13.9904 163.53 15.7681 163.375 17.3914ZM141.695 14.3768C138.753 14.3768 136.74 16.6957 136.74 20.0193C136.74 23.4203 138.753 25.5846 141.695 25.5846C144.87 25.5846 146.651 23.0338 146.651 20.0193C146.574 16.4637 144.561 14.3768 141.695 14.3768ZM114.982 25.5846C118.002 25.5846 120.248 23.2657 120.248 19.942C120.248 16.6184 117.925 14.3768 114.982 14.3768C111.963 14.3768 109.872 16.6957 109.872 20.0193C109.871 20.0769 109.87 20.1342 109.87 20.1912C109.87 23.42 112.015 25.5846 114.982 25.5846Z" fill="#316FEA" fill-opacity="1.000000" fill-rule="evenodd"/>
</svg>
